{
  "accessors": [
    {
      "bufferView": 1,
      "componentType": 5126,
      "count": 3186,
      "max": [
        0.6891706585884094,
        2.41792893409729,
        2.9745843410491943
      ],
      "min": [
        -4.308976650238037,
        0.8237001895904541,
        -2.9745843410491943
      ],
      "type": "VEC3"
    },
    {
      "bufferView": 1,
      "byteOffset": 38232,
      "componentType": 5126,
      "count": 3186,
      "max": [
        0.04370255023241043,
        0.13724537193775177,
        0.999937891960144
      ],
      "min": [
        -0.043702561408281326,
        0.010497977025806904,
        -0.999937891960144
      ],
      "type": "VEC3"
    },
    {
      "bufferView": 0,
      "componentType": 5125,
      "count": 3186,
      "type": "SCALAR"
    },
    {
      "bufferView": 1,
      "byteOffset": 76464,
      "componentType": 5126,
      "count": 1092,
      "max": [
        5.35218620300293,
        3.7706055641174316,
        2.655839443206787
      ],
      "min": [
        1.6079833507537842,
        2.7443528175354004,
        -2.655839443206787
      ],
      "type": "VEC3"
    },
    {
      "bufferView": 1,
      "byteOffset": 89568,
      "componentType": 5126,
      "count": 1092,
      "max": [
        1.0,
        1.0,
        0.999157190322876
      ],
      "min": [
        -1.0,
        -1.0,
        -0.999157190322876
      ],
      "type": "VEC3"
    },
    {
      "bufferView": 0,
      "byteOffset": 12744,
      "componentType": 5125,
      "count": 6528,
      "type": "SCALAR"
    },
    {
      "bufferView": 1,
      "byteOffset": 102672,
      "componentType": 5126,
      "count": 3668,
      "max": [
        3.513686180114746,
        -1.645821452140808,
        2.492995023727417
      ],
      "min": [
        -3.651848077774048,
        -3.777924060821533,
        -2.492995023727417
      ],
      "type": "VEC3"
    },
    {
      "bufferView": 1,
      "byteOffset": 146688,
      "componentType": 5126,
      "count": 3668,
      "max": [
        0.9981977939605713,
        0.9982492923736572,
        0.9999992847442627
      ],
      "min": [
        -0.9981956481933594,
        -0.998245894908905,
        -0.9999992847442627
      ],
      "type": "VEC3"
    },
    {
      "bufferView": 0,
      "byteOffset": 38856,
      "componentType": 5125,
      "count": 21504,
      "type": "SCALAR"
    },
    {
      "bufferView": 1,
      "byteOffset": 190704,
      "componentType": 5126,
      "count": 1108,
      "max": [
        2.9062206745147705,
        -2.2448713779449463,
        2.4444565773010254
      ],
      "min": [
        -3.041079521179199,
        -3.1623032093048096,
        -2.4444565773010254
      ],
      "type": "VEC3"
    },
    {
      "bufferView": 1,
      "byteOffset": 204000,
      "componentType": 5126,
      "count": 1108,
      "max": [
        0.9757381081581116,
        0.9940416216850281,
        0.9999926090240479
      ],
      "min": [
        -0.9728668332099915,
        -0.9778501987457275,
        -0.9999926090240479
      ],
      "type": "VEC3"
    },
    {
      "bufferView": 0,
      "byteOffset": 124872,
      "componentType": 5125,
      "count": 6144,
      "type": "SCALAR"
    },
    {
      "bufferView": 1,
      "byteOffset": 217296,
      "componentType": 5126,
      "count": 674,
      "max": [
        5.621069431304932,
        -0.08597065508365631,
        0.9147658348083496
      ],
      "min": [
        4.871397018432617,
        -1.9914085865020752,
        -0.9147658348083496
      ],
      "type": "VEC3"
    },
    {
      "bufferView": 1,
      "byteOffset": 225384,
      "componentType": 5126,
      "count": 674,
      "max": [
        0.9994219541549683,
        0.9995182752609253,
        1.0
      ],
      "min": [
        -0.9995304346084595,
        -0.9999911785125732,
        -1.0
      ],
      "type": "VEC3"
    },
    {
      "bufferView": 0,
      "byteOffset": 149448,
      "componentType": 5125,
      "count": 4032,
      "type": "SCALAR"
    },
    {
      "bufferView": 1,
      "byteOffset": 233472,
      "componentType": 5126,
      "count": 2500,
      "max": [
        4.956414699554443,
        -2.164555788040161,
        2.80955171585083
      ],
      "min": [
        -5.372961044311523,
        -2.747738838195801,
        -2.8095507621765137
      ],
      "type": "VEC3"
    },
    {
      "bufferView": 1,
      "byteOffset": 263472,
      "componentType": 5126,
      "count": 2500,
      "max": [
        0.9999587535858154,
        0.9999749660491943,
        0.9993796348571777
      ],
      "min": [
        -0.9996160268783569,
        -0.9989380240440369,
        -0.9993796348571777
      ],
      "type": "VEC3"
    },
    {
      "bufferView": 0,
      "byteOffset": 165576,
      "componentType": 5125,
      "count": 14976,
      "type": "SCALAR"
    },
    {
      "bufferView": 1,
      "byteOffset": 293472,
      "componentType": 5126,
      "count": 1706,
      "max": [
        -5.8002028465271,
        0.013565175235271454,
        0.9807880520820618
      ],
      "min": [
        -5.954992294311523,
        -0.25526660680770874,
        -0.9807880520820618
      ],
      "type": "VEC3"
    },
    {
      "bufferView": 1,
      "byteOffset": 313944,
      "componentType": 5126,
      "count": 1706,
      "max": [
        0.9996929168701172,
        1.0,
        0.9999932050704956
      ],
      "min": [
        -1.0,
        -1.0,
        -0.999993085861206
      ],
      "type": "VEC3"
    },
    {
      "bufferView": 0,
      "byteOffset": 225480,
      "componentType": 5125,
      "count": 9984,
      "type": "SCALAR"
    },
    {
      "bufferView": 1,
      "byteOffset": 334416,
      "componentType": 5126,
      "count": 1524,
      "max": [
        5.043670654296875,
        -0.6336346864700317,
        2.453979969024658
      ],
      "min": [
        4.571003437042236,
        -2.102285623550415,
        -2.453979969024658
      ],
      "type": "VEC3"
    },
    {
      "bufferView": 1,
      "byteOffset": 352704,
      "componentType": 5126,
      "count": 1524,
      "max": [
        0.9995415210723877,
        0.9987536072731018,
        0.9991391897201538
      ],
      "min": [
        -0.03802681714296341,
        -0.9987604022026062,
        -0.9991391897201538
      ],
      "type": "VEC3"
    },
    {
      "bufferView": 0,
      "byteOffset": 265416,
      "componentType": 5125,
      "count": 8640,
      "type": "SCALAR"
    },
    {
      "bufferView": 1,
      "byteOffset": 370992,
      "componentType": 5126,
      "count": 762,
      "max": [
        -4.942460060119629,
        -1.7550232410430908,
        2.163332223892212
      ],
      "min": [
        -5.199282169342041,
        -2.102285623550415,
        -2.163332223892212
      ],
      "type": "VEC3"
    },
    {
      "bufferView": 1,
      "byteOffset": 380136,
      "componentType": 5126,
      "count": 762,
      "max": [
        0.02243136800825596,
        0.9987536072731018,
        0.9991391897201538
      ],
      "min": [
        -0.9982417225837708,
        -0.9987604022026062,
        -0.9991391897201538
      ],
      "type": "VEC3"
    },
    {
      "bufferView": 0,
      "byteOffset": 299976,
      "componentType": 5125,
      "count": 4320,
      "type": "SCALAR"
    },
    {
      "bufferView": 1,
      "byteOffset": 389280,
      "componentType": 5126,
      "count": 14291,
      "max": [
        5.098423004150391,
        3.14631986618042,
        2.9789083003997803
      ],
      "min": [
        -5.879315376281738,
        -2.715651750564575,
        -2.9789085388183594
      ],
      "type": "VEC3"
    },
    {
      "bufferView": 1,
      "byteOffset": 560772,
      "componentType": 5126,
      "count": 14291,
      "max": [
        1.0,
        1.0,
        0.9999998807907104
      ],
      "min": [
        -0.9999852180480957,
        -1.0,
        -0.9999998807907104
      ],
      "type": "VEC3"
    },
    {
      "bufferView": 0,
      "byteOffset": 317256,
      "componentType": 5125,
      "count": 83808,
      "type": "SCALAR"
    },
    {
      "bufferView": 1,
      "byteOffset": 732264,
      "componentType": 5126,
      "count": 2184,
      "max": [
        5.110412120819092,
        0.13087676465511322,
        3.005755662918091
      ],
      "min": [
        -5.868692398071289,
        -0.6404278874397278,
        -3.005755662918091
      ],
      "type": "VEC3"
    },
    {
      "bufferView": 1,
      "byteOffset": 758472,
      "componentType": 5126,
      "count": 2184,
      "max": [
        0.9981781840324402,
        0.8277001976966858,
        0.9999998807907104
      ],
      "min": [
        -0.9999991655349731,
        -0.4837919771671295,
        -0.9999998807907104
      ],
      "type": "VEC3"
    },
    {
      "bufferView": 0,
      "byteOffset": 652488,
      "componentType": 5125,
      "count": 12096,
      "type": "SCALAR"
    },
    {
      "bufferView": 1,
      "byteOffset": 784680,
      "componentType": 5126,
      "count": 2197,
      "max": [
        4.74318265914917,
        2.6134111881256104,
        2.873884916305542
      ],
      "min": [
        -5.7907609939575195,
        0.26602962613105774,
        -2.873884916305542
      ],
      "type": "VEC3"
    },
    {
      "bufferView": 1,
      "byteOffset": 811044,
      "componentType": 5126,
      "count": 2197,
      "max": [
        0.9899405837059021,
        1.0,
        0.9999886751174927
      ],
      "min": [
        -0.999078631401062,
        -1.0,
        -0.9999886751174927
      ],
      "type": "VEC3"
    },
    {
      "bufferView": 0,
      "byteOffset": 700872,
      "componentType": 5125,
      "count": 12288,
      "type": "SCALAR"
    }
  ],
  "asset": {
    "extras": {
      "author": "Neut2000 (https://sketchfab.com/Neut2000)",
      "license": "CC-BY-4.0 (http://creativecommons.org/licenses/by/4.0/)",
      "source": "https://sketchfab.com/3d-models/mystery-machine-fff412c9c8b44a0a9cde26d38b16a197",
      "title": "Mystery Machine"
    },
    "generator": "Sketchfab-12.67.0",
    "version": "2.0"
  },
  "bufferViews": [
    {
      "buffer": 0,
      "byteLength": 750024,
      "name": "floatBufferViews",
      "target": 34963
    },
    {
      "buffer": 0,
      "byteLength": 837408,
      "byteOffset": 750024,
      "byteStride": 12,
      "name": "floatBufferViews",
      "target": 34962
    }
  ],
  "buffers": [
    {
      "byteLength": 1587432,
      "uri": "scene.bin"
    }
  ],
  "materials": [
    {
      "doubleSided": true,
      "name": "Orange",
      "pbrMetallicRoughness": {
        "baseColorFactor": [
          0.874102,
          0.136632,
          0.00820165,
          1.0
        ],
        "metallicFactor": 0.0,
        "roughnessFactor": 0.957705
      }
    },
    {
      "doubleSided": true,
      "name": "Metal",
      "pbrMetallicRoughness": {
        "baseColorFactor": [
          0.8,
          0.8,
          0.8,
          1.0
        ],
        "roughnessFactor": 0.349276
      }
    },
    {
      "doubleSided": true,
      "name": "Grey",
      "pbrMetallicRoughness": {
        "baseColorFactor": [
          0.0758956,
          0.0758956,
          0.0758956,
          1.0
        ],
        "metallicFactor": 0.0,
        "roughnessFactor": 0.957705
      }
    },
    {
      "doubleSided": true,
      "name": "Green",
      "pbrMetallicRoughness": {
        "baseColorFactor": [
          0.156437,
          0.883437,
          0.131495,
          1.0
        ],
        "metallicFactor": 0.0,
        "roughnessFactor": 0.957705
      }
    },
    {
      "doubleSided": true,
      "emissiveFactor": [
        1.0,
        1.0,
        1.0
      ],
      "name": "Whiteglow",
      "pbrMetallicRoughness": {
        "baseColorFactor": [
          0.8,
          0.8,
          0.8,
          1.0
        ],
        "metallicFactor": 0.0,
        "roughnessFactor": 0.957705
      }
    },
    {
      "doubleSided": true,
      "emissiveFactor": [
        1.0,
        0.0,
        0.0
      ],
      "name": "material",
      "pbrMetallicRoughness": {
        "baseColorFactor": [
          0.261889,
          0.0257885,
          0.0257885,
          1.0
        ],
        "metallicFactor": 0.0,
        "roughnessFactor": 0.957705
      }
    },
    {
      "doubleSided": true,
      "name": "Blue",
      "pbrMetallicRoughness": {
        "baseColorFactor": [
          0.186484,
          0.584602,
          1.0,
          1.0
        ],
        "metallicFactor": 0.0,
        "roughnessFactor": 0.957705
      }
    },
    {
      "doubleSided": true,
      "name": "Black",
      "pbrMetallicRoughness": {
        "baseColorFactor": [
          0.0,
          0.0,
          0.0,
          1.0
        ],
        "metallicFactor": 0.0,
        "roughnessFactor": 0.957705
      }
    }
  ],
  "meshes": [
    {
      "name": "Object_0",
      "primitives": [
        {
          "attributes": {
            "NORMAL": 1,
            "POSITION": 0
          },
          "indices": 2,
          "material": 0,
          "mode": 4
        }
      ]
    },
    {
      "name": "Object_1",
      "primitives": [
        {
          "attributes": {
            "NORMAL": 4,
            "POSITION": 3
          },
          "indices": 5,
          "material": 1,
          "mode": 4
        }
      ]
    },
    {
      "name": "Object_2",
      "primitives": [
        {
          "attributes": {
            "NORMAL": 7,
            "POSITION": 6
          },
          "indices": 8,
          "material": 2,
          "mode": 4
        }
      ]
    },
    {
      "name": "Object_3",
      "primitives": [
        {
          "attributes": {
            "NORMAL": 10,
            "POSITION": 9
          },
          "indices": 11,
          "material": 3,
          "mode": 4
        }
      ]
    },
    {
      "name": "Object_4",
      "primitives": [
        {
          "attributes": {
            "NORMAL": 13,
            "POSITION": 12
          },
          "indices": 14,
          "material": 3,
          "mode": 4
        }
      ]
    },
    {
      "name": "Object_5",
      "primitives": [
        {
          "attributes": {
            "NORMAL": 16,
            "POSITION": 15
          },
          "indices": 17,
          "material": 1,
          "mode": 4
        }
      ]
    },
    {
      "name": "Object_6",
      "primitives": [
        {
          "attributes": {
            "NORMAL": 19,
            "POSITION": 18
          },
          "indices": 20,
          "material": 1,
          "mode": 4
        }
      ]
    },
    {
      "name": "Object_7",
      "primitives": [
        {
          "attributes": {
            "NORMAL": 22,
            "POSITION": 21
          },
          "indices": 23,
          "material": 4,
          "mode": 4
        }
      ]
    },
    {
      "name": "Object_8",
      "primitives": [
        {
          "attributes": {
            "NORMAL": 25,
            "POSITION": 24
          },
          "indices": 26,
          "material": 5,
          "mode": 4
        }
      ]
    },
    {
      "name": "Object_9",
      "primitives": [
        {
          "attributes": {
            "NORMAL": 28,
            "POSITION": 27
          },
          "indices": 29,
          "material": 6,
          "mode": 4
        }
      ]
    },
    {
      "name": "Object_10",
      "primitives": [
        {
          "attributes": {
            "NORMAL": 31,
            "POSITION": 30
          },
          "indices": 32,
          "material": 3,
          "mode": 4
        }
      ]
    },
    {
      "name": "Object_11",
      "primitives": [
        {
          "attributes": {
            "NORMAL": 34,
            "POSITION": 33
          },
          "indices": 35,
          "material": 7,
          "mode": 4
        }
      ]
    }
  ],
  "nodes": [
    {
      "children": [
        1
      ],
      "matrix": [
        1.0,
        0.0,
        0.0,
        0.0,
        0.0,
        2.220446049250313e-16,
        -1.0,
        0.0,
        0.0,
        1.0,
        2.220446049250313e-16,
        0.0,
        0.0,
        0.0,
        0.0,
        1.0
      ],
      "name": "Sketchfab_model"
    },
    {
      "children": [
        2
      ],
      "name": "root"
    },
    {
      "children": [
        3
      ],
      "matrix": [
        1.0,
        0.0,
        0.0,
        0.0,
        0.0,
        2.220446049250313e-16,
        1.0,
        0.0,
        0.0,
        -1.0,
        2.220446049250313e-16,
        0.0,
        0.0,
        0.0,
        0.0,
        1.0
      ],
      "name": "GLTF_SceneRootNode"
    },
    {
      "children": [
        4
      ],
      "matrix": [
        1.0,
        0.0,
        -0.0,
        0.0,
        -0.0,
        0.0,
        -1.0,
        0.0,
        0.0,
        1.0,
        0.0,
        0.0,
        0.0,
        0.0,
        0.0,
        1.0
      ],
      "name": "RootNode (gltf orientation matrix)_0"
    },
    {
      "children": [
        5
      ],
      "name": "RootNode (model correction matrix)_1"
    },
    {
      "children": [
        6
      ],
      "matrix": [
        1.0,
        0.0,
        0.0,
        0.0,
        0.0,
        0.0,
        1.0,
        0.0,
        0.0,
        -1.0,
        0.0,
        0.0,
        0.0,
        0.0,
        0.0,
        1.0
      ],
      "name": "208d42317d34431a8cb3f291e20692cf.fbx_2"
    },
    {
      "children": [
        7,
        10,
        13,
        18,
        21,
        24,
        31
      ],
      "name": "RootNode_3"
    },
    {
      "children": [
        8
      ],
      "matrix": [
        78.00856018066406,
        0.0,
        0.0,
        0.0,
        0.0,
        78.00856018066406,
        1.2709208021988161e-05,
        0.0,
        0.0,
        -1.2709208021988161e-05,
        78.00856018066406,
        0.0,
        0.0,
        0.0,
        0.0,
        1.0
      ],
      "name": "Plane.005_4"
    },
    {
      "children": [
        9
      ],
      "name": "Plane.005_Orange_0_5"
    },
    {
      "mesh": 0,
      "name": "Object_9"
    },
    {
      "children": [
        11
      ],
      "matrix": [
        78.00856018066406,
        0.0,
        0.0,
        0.0,
        0.0,
        78.00856018066406,
        1.2709208021988161e-05,
        0.0,
        0.0,
        -1.2709208021988161e-05,
        78.00856018066406,
        0.0,
        -329.8391418457031,
        0.0,
        0.0,
        1.0
      ],
      "name": "Plane.006_6"
    },
    {
      "children": [
        12
      ],
      "name": "Plane.006_Metal_0_7"
    },
    {
      "mesh": 1,
      "name": "Object_12"
    },
    {
      "children": [
        14,
        16
      ],
      "matrix": [
        78.00856018066406,
        0.0,
        0.0,
        0.0,
        0.0,
        78.00856018066406,
        1.2709208021988161e-05,
        0.0,
        0.0,
        -1.2709208021988161e-05,
        78.00856018066406,
        0.0,
        0.0,
        0.0,
        0.0,
        1.0
      ],
      "name": "Plane.004_8"
    },
    {
      "children": [
        15
      ],
      "name": "Plane.004_Grey_0_9"
    },
    {
      "mesh": 2,
      "name": "Object_15"
    },
    {
      "children": [
        17
      ],
      "name": "Plane.004_Green_0_10"
    },
    {
      "mesh": 3,
      "name": "Object_17"
    },
    {
      "children": [
        19
      ],
      "matrix": [
        78.00856018066406,
        0.0,
        0.0,
        0.0,
        0.0,
        78.00856018066406,
        1.2709208021988161e-05,
        0.0,
        0.0,
        -1.2709208021988161e-05,
        78.00856018066406,
        0.0,
        0.0,
        0.0,
        0.0,
        1.0
      ],
      "name": "Plane.003_11"
    },
    {
      "children": [
        20
      ],
      "name": "Plane.003_Green_0_12"
    },
    {
      "mesh": 4,
      "name": "Object_20"
    },
    {
      "children": [
        22
      ],
      "matrix": [
        78.00856018066406,
        0.0,
        0.0,
        0.0,
        0.0,
        78.00856018066406,
        1.2709208021988161e-05,
        0.0,
        0.0,
        -1.2709208021988161e-05,
        78.00856018066406,
        0.0,
        0.0,
        0.0,
        0.0,
        1.0
      ],
      "name": "Plane.002_13"
    },
    {
      "children": [
        23
      ],
      "name": "Plane.002_Metal_0_14"
    },
    {
      "mesh": 5,
      "name": "Object_23"
    },
    {
      "children": [
        25,
        27,
        29
      ],
      "matrix": [
        78.00856018066406,
        0.0,
        0.0,
        0.0,
        0.0,
        78.00856018066406,
        1.2709208021988161e-05,
        0.0,
        0.0,
        -1.2709208021988161e-05,
        78.00856018066406,
        0.0,
        0.0,
        0.0,
        0.0,
        1.0
      ],
      "name": "Plane.001_15"
    },
    {
      "children": [
        26
      ],
      "name": "Plane.001_Metal_0_16"
    },
    {
      "mesh": 6,
      "name": "Object_26"
    },
    {
      "children": [
        28
      ],
      "name": "Plane.001_Whiteglow_0_17"
    },
    {
      "mesh": 7,
      "name": "Object_28"
    },
    {
      "children": [
        30
      ],
      "name": "Plane.001_Red_0_18"
    },
    {
      "mesh": 8,
      "name": "Object_30"
    },
    {
      "children": [
        32,
        34,
        36
      ],
      "matrix": [
        78.00856018066406,
        0.0,
        0.0,
        0.0,
        0.0,
        78.00856018066406,
        1.2709208021988161e-05,
        0.0,
        0.0,
        -1.2709208021988161e-05,
        78.00856018066406,
        0.0,
        0.0,
        0.0,
        0.0,
        1.0
      ],
      "name": "Plane_19"
    },
    {
      "children": [
        33
      ],
      "name": "Plane_Blue_0_20"
    },
    {
      "mesh": 9,
      "name": "Object_33"
    },
    {
      "children": [
        35
      ],
      "name": "Plane_Green_0_21"
    },
    {
      "mesh": 10,
      "name": "Object_35"
    },
    {
      "children": [
        37
      ],
      "name": "Plane_Black_0_22"
    },
    {
      "mesh": 11,
      "name": "Object_37"
    }
  ],
  "scene": 0,
  "scenes": [
    {
      "name": "Sketchfab_Scene",
      "nodes": [
        0
      ]
    }
  ]
}
