{
  "accessors": [
    {
      "bufferView": 2,
      "componentType": 5126,
      "count": 2612,
      "max": [
        1.053123950958252,
        1.749819040298462,
        0.8851699829101563
      ],
      "min": [
        -1.0530539751052856,
        -1.751114010810852,
        -0.015034999698400497
      ],
      "type": "VEC3"
    },
    {
      "bufferView": 2,
      "byteOffset": 31344,
      "componentType": 5126,
      "count": 2612,
      "max": [
        1.0,
        1.0,
        1.0
      ],
      "min": [
        -1.0,
        -1.0,
        -0.9998118281364441
      ],
      "type": "VEC3"
    },
    {
      "bufferView": 1,
      "componentType": 5126,
      "count": 2612,
      "max": [
        0.9995120167732239,
        0.9982939958572388
      ],
      "min": [
        0.00045399999362416565,
        0.0019529999699443579
      ],
      "type": "VEC2"
    },
    {
      "bufferView": 0,
      "componentType": 5125,
      "count": 13920,
      "type": "SCALAR"
    },
    {
      "bufferView": 2,
      "byteOffset": 62688,
      "componentType": 5126,
      "count": 8860,
      "max": [
        1.150068998336792,
        2.4054830074310303,
        1.4536759853363037
      ],
      "min": [
        -1.150068998336792,
        -2.2315759658813477,
        0.05699700117111206
      ],
      "type": "VEC3"
    },
    {
      "bufferView": 2,
      "byteOffset": 169008,
      "componentType": 5126,
      "count": 8860,
      "max": [
        1.0,
        1.0,
        1.0
      ],
      "min": [
        -1.0,
        -1.0,
        -1.0
      ],
      "type": "VEC3"
    },
    {
      "bufferView": 1,
      "byteOffset": 20896,
      "componentType": 5126,
      "count": 8860,
      "max": [
        0.9975590109825134,
        0.9985489845275879
      ],
      "min": [
        0.0009399999980814755,
        0.0019529999699443579
      ],
      "type": "VEC2"
    },
    {
      "bufferView": 0,
      "byteOffset": 55680,
      "componentType": 5125,
      "count": 44346,
      "type": "SCALAR"
    },
    {
      "bufferView": 2,
      "byteOffset": 275328,
      "componentType": 5126,
      "count": 1178,
      "max": [
        0.9612339735031128,
        2.278964042663574,
        1.064512014389038
      ],
      "min": [
        -0.9612339735031128,
        -2.127134084701538,
        0.6374269723892212
      ],
      "type": "VEC3"
    },
    {
      "bufferView": 2,
      "byteOffset": 289464,
      "componentType": 5126,
      "count": 1178,
      "max": [
        0.9537445902824402,
        0.9993473887443542,
        0.9994074106216431
      ],
      "min": [
        -0.9537445902824402,
        -0.9899641275405884,
        -0.969478189945221
      ],
      "type": "VEC3"
    },
    {
      "bufferView": 1,
      "byteOffset": 91776,
      "componentType": 5126,
      "count": 1178,
      "max": [
        0.9931640028953552,
        0.9399290084838867
      ],
      "min": [
        0.006634000223129988,
        0.005654000211507082
      ],
      "type": "VEC2"
    },
    {
      "bufferView": 0,
      "byteOffset": 233064,
      "componentType": 5125,
      "count": 6582,
      "type": "SCALAR"
    },
    {
      "bufferView": 2,
      "byteOffset": 303600,
      "componentType": 5126,
      "count": 127,
      "max": [
        0.8396490216255188,
        1.8333159685134888,
        1.3655519485473633
      ],
      "min": [
        -0.8396490216255188,
        -0.2780280113220215,
        0.9684990048408508
      ],
      "type": "VEC3"
    },
    {
      "bufferView": 2,
      "byteOffset": 305124,
      "componentType": 5126,
      "count": 127,
      "max": [
        0.9144569635391235,
        0.2778058648109436,
        0.9608379006385803
      ],
      "min": [
        -0.91440349817276,
        -0.11740313470363617,
        0.4046809673309326
      ],
      "type": "VEC3"
    },
    {
      "bufferView": 1,
      "byteOffset": 101200,
      "componentType": 5126,
      "count": 127,
      "max": [
        0.8831030130386353,
        0.9176740050315857
      ],
      "min": [
        0.1562969982624054,
        0.05341700091958046
      ],
      "type": "VEC2"
    },
    {
      "bufferView": 0,
      "byteOffset": 259392,
      "componentType": 5125,
      "count": 432,
      "type": "SCALAR"
    },
    {
      "bufferView": 2,
      "byteOffset": 306648,
      "componentType": 5126,
      "count": 83,
      "max": [
        0.7381420135498047,
        -0.17132100462913513,
        1.3345340490341187
      ],
      "min": [
        -0.7381420135498047,
        -0.6025339961051941,
        0.9576510190963745
      ],
      "type": "VEC3"
    },
    {
      "bufferView": 2,
      "byteOffset": 307644,
      "componentType": 5126,
      "count": 83,
      "max": [
        0.45270010828971863,
        -0.5840001106262207,
        0.7057053446769714
      ],
      "min": [
        -0.45270010828971863,
        -0.7094030380249023,
        0.6550909280776978
      ],
      "type": "VEC3"
    },
    {
      "bufferView": 1,
      "byteOffset": 102216,
      "componentType": 5126,
      "count": 83,
      "max": [
        0.9985349774360657,
        0.9947609901428223
      ],
      "min": [
        0.003490000031888485,
        0.0029299999587237835
      ],
      "type": "VEC2"
    },
    {
      "bufferView": 0,
      "byteOffset": 261120,
      "componentType": 5125,
      "count": 318,
      "type": "SCALAR"
    },
    {
      "bufferView": 2,
      "byteOffset": 308640,
      "componentType": 5126,
      "count": 228,
      "max": [
        0.9483870267868042,
        2.2858989238739014,
        1.0595810413360596
      ],
      "min": [
        -0.9483870267868042,
        -2.128124952316284,
        0.645226001739502
      ],
      "type": "VEC3"
    },
    {
      "bufferView": 2,
      "byteOffset": 311376,
      "componentType": 5126,
      "count": 228,
      "max": [
        0.9910971522331238,
        0.9922248721122742,
        0.9869851469993591
      ],
      "min": [
        -0.9910971522331238,
        -0.9746652245521545,
        -0.9202377200126648
      ],
      "type": "VEC3"
    },
    {
      "bufferView": 1,
      "byteOffset": 102880,
      "componentType": 5126,
      "count": 228,
      "max": [
        1.0,
        0.9974539875984192
      ],
      "min": [
        -0.0,
        0.0
      ],
      "type": "VEC2"
    },
    {
      "bufferView": 0,
      "byteOffset": 262392,
      "componentType": 5125,
      "count": 1038,
      "type": "SCALAR"
    }
  ],
  "asset": {
    "extras": {
      "author": "LukeMcQueen02 (https://sketchfab.com/lukemcqueen02)",
      "license": "CC-BY-4.0 (http://creativecommons.org/licenses/by/4.0/)",
      "source": "https://sketchfab.com/3d-models/lightning-mcqueen-cars-3-8ebf1c0a566744209368aee783739cbe",
      "title": "Lightning Mcqueen (Cars 3)"
    },
    "generator": "Sketchfab-16.65.0",
    "version": "2.0"
  },
  "bufferViews": [
    {
      "buffer": 0,
      "byteLength": 266544,
      "name": "floatBufferViews",
      "target": 34963
    },
    {
      "buffer": 0,
      "byteLength": 104704,
      "byteOffset": 266544,
      "byteStride": 8,
      "name": "floatBufferViews",
      "target": 34962
    },
    {
      "buffer": 0,
      "byteLength": 314112,
      "byteOffset": 371248,
      "byteStride": 12,
      "name": "floatBufferViews",
      "target": 34962
    }
  ],
  "buffers": [
    {
      "byteLength": 685360,
      "uri": "scene.bin"
    }
  ],
  "images": [
    {
      "uri": "textures/Material.002_baseColor.jpeg"
    },
    {
      "uri": "textures/Material.002_metallicRoughness.png"
    },
    {
      "uri": "textures/Material.003_baseColor.jpeg"
    },
    {
      "uri": "textures/Material.003_metallicRoughness.png"
    },
    {
      "uri": "textures/Material.010_baseColor.jpeg"
    },
    {
      "uri": "textures/Material.010_metallicRoughness.png"
    },
    {
      "uri": "textures/Material.011_baseColor.jpeg"
    }
  ],
  "materials": [
    {
      "doubleSided": true,
      "name": "Material.002",
      "pbrMetallicRoughness": {
        "baseColorTexture": {
          "index": 0
        },
        "metallicFactor": 0.0,
        "metallicRoughnessTexture": {
          "index": 1
        }
      }
    },
    {
      "doubleSided": true,
      "name": "Material.003",
      "pbrMetallicRoughness": {
        "baseColorTexture": {
          "index": 2
        },
        "metallicFactor": 0.0,
        "metallicRoughnessTexture": {
          "index": 3
        }
      }
    },
    {
      "doubleSided": true,
      "name": "Material.007",
      "pbrMetallicRoughness": {
        "metallicFactor": 0.0,
        "roughnessFactor": 0.6
      }
    },
    {
      "alphaMode": "BLEND",
      "doubleSided": true,
      "name": "Material.009",
      "pbrMetallicRoughness": {
        "baseColorFactor": [
          0.07029048360152845,
          0.09330416847319511,
          0.10967362468346505,
          0.4739062061903426
        ],
        "metallicFactor": 0.0,
        "roughnessFactor": 0.0
      }
    },
    {
      "doubleSided": true,
      "name": "Material.010",
      "pbrMetallicRoughness": {
        "baseColorTexture": {
          "index": 4
        },
        "metallicFactor": 0.0,
        "metallicRoughnessTexture": {
          "index": 5
        }
      }
    },
    {
      "alphaMode": "BLEND",
      "doubleSided": true,
      "name": "Material.011",
      "pbrMetallicRoughness": {
        "baseColorFactor": [
          1.0,
          1.0,
          1.0,
          0.9798125099047921
        ],
        "baseColorTexture": {
          "index": 6
        },
        "metallicFactor": 0.2118101693262303,
        "roughnessFactor": 0.0
      }
    }
  ],
  "meshes": [
    {
      "name": "Object_0",
      "primitives": [
        {
          "attributes": {
            "NORMAL": 1,
            "POSITION": 0,
            "TEXCOORD_0": 2
          },
          "indices": 3,
          "material": 0,
          "mode": 4
        }
      ]
    },
    {
      "name": "Object_1",
      "primitives": [
        {
          "attributes": {
            "NORMAL": 5,
            "POSITION": 4,
            "TEXCOORD_0": 6
          },
          "indices": 7,
          "material": 1,
          "mode": 4
        }
      ]
    },
    {
      "name": "Object_2",
      "primitives": [
        {
          "attributes": {
            "NORMAL": 9,
            "POSITION": 8,
            "TEXCOORD_0": 10
          },
          "indices": 11,
          "material": 2,
          "mode": 4
        }
      ]
    },
    {
      "name": "Object_3",
      "primitives": [
        {
          "attributes": {
            "NORMAL": 13,
            "POSITION": 12,
            "TEXCOORD_0": 14
          },
          "indices": 15,
          "material": 3,
          "mode": 4
        }
      ]
    },
    {
      "name": "Object_4",
      "primitives": [
        {
          "attributes": {
            "NORMAL": 17,
            "POSITION": 16,
            "TEXCOORD_0": 18
          },
          "indices": 19,
          "material": 4,
          "mode": 4
        }
      ]
    },
    {
      "name": "Object_5",
      "primitives": [
        {
          "attributes": {
            "NORMAL": 21,
            "POSITION": 20,
            "TEXCOORD_0": 22
          },
          "indices": 23,
          "material": 5,
          "mode": 4
        }
      ]
    }
  ],
  "nodes": [
    {
      "children": [
        1
      ],
      "matrix": [
        1.0,
        0.0,
        0.0,
        0.0,
        0.0,
        2.220446049250313e-16,
        -1.0,
        0.0,
        0.0,
        1.0,
        2.220446049250313e-16,
        0.0,
        0.0,
        0.0,
        0.0,
        1.0
      ],
      "name": "Sketchfab_model"
    },
    {
      "children": [
        2,
        3,
        4,
        5,
        6,
        7
      ],
      "name": "mcqueendtw.obj.cleaner.materialmerger.gles"
    },
    {
      "mesh": 0,
      "name": "Object_2"
    },
    {
      "mesh": 1,
      "name": "Object_3"
    },
    {
      "mesh": 2,
      "name": "Object_4"
    },
    {
      "mesh": 3,
      "name": "Object_5"
    },
    {
      "mesh": 4,
      "name": "Object_6"
    },
    {
      "mesh": 5,
      "name": "Object_7"
    }
  ],
  "samplers": [
    {
      "magFilter": 9729,
      "minFilter": 9987,
      "wrapS": 10497,
      "wrapT": 10497
    }
  ],
  "scene": 0,
  "scenes": [
    {
      "name": "Sketchfab_Scene",
      "nodes": [
        0
      ]
    }
  ],
  "textures": [
    {
      "sampler": 0,
      "source": 0
    },
    {
      "sampler": 0,
      "source": 1
    },
    {
      "sampler": 0,
      "source": 2
    },
    {
      "sampler": 0,
      "source": 3
    },
    {
      "sampler": 0,
      "source": 4
    },
    {
      "sampler": 0,
      "source": 5
    },
    {
      "sampler": 0,
      "source": 6
    }
  ]
}
