{
  "accessors": [
    {
      "bufferView": 2,
      "componentType": 5126,
      "count": 1906,
      "max": [
        0.7948715090751648,
        0.8694377541542053,
        1.1165825128555298
      ],
      "min": [
        -0.799828052520752,
        -1.7897976636886597,
        -0.5028294920921326
      ],
      "type": "VEC3"
    },
    {
      "bufferView": 2,
      "byteOffset": 22872,
      "componentType": 5126,
      "count": 1906,
      "max": [
        1.0,
        1.0,
        1.0
      ],
      "min": [
        -1.0,
        -1.0,
        -1.0
      ],
      "type": "VEC3"
    },
    {
      "bufferView": 1,
      "componentType": 5126,
      "count": 1906,
      "max": [
        0.9702497720718384,
        0.9775799512863159
      ],
      "min": [
        0.03398304805159569,
        0.029013875871896744
      ],
      "type": "VEC2"
    },
    {
      "bufferView": 0,
      "componentType": 5125,
      "count": 3876,
      "type": "SCALAR"
    },
    {
      "bufferView": 2,
      "byteOffset": 45744,
      "componentType": 5126,
      "count": 5178,
      "max": [
        0.8883074522018433,
        1.5682015419006348,
        0.9496119618415833
      ],
      "min": [
        -0.8957329392433167,
        -1.6724218130111694,
        -0.6110973358154297
      ],
      "type": "VEC3"
    },
    {
      "bufferView": 2,
      "byteOffset": 107880,
      "componentType": 5126,
      "count": 5178,
      "max": [
        1.0,
        1.0,
        1.0
      ],
      "min": [
        -1.0,
        -1.0,
        -1.0
      ],
      "type": "VEC3"
    },
    {
      "bufferView": 1,
      "byteOffset": 15248,
      "componentType": 5126,
      "count": 5178,
      "max": [
        0.9883485436439514,
        0.9957446455955505
      ],
      "min": [
        0.00908114854246378,
        0.007280769292265177
      ],
      "type": "VEC2"
    },
    {
      "bufferView": 0,
      "byteOffset": 15504,
      "componentType": 5125,
      "count": 13572,
      "type": "SCALAR"
    },
    {
      "bufferView": 2,
      "byteOffset": 170016,
      "componentType": 5126,
      "count": 72,
      "max": [
        0.8359968066215515,
        -0.5536661744117737,
        0.8377854824066162
      ],
      "min": [
        -0.8434222936630249,
        -0.5572910308837891,
        0.3289848864078522
      ],
      "type": "VEC3"
    },
    {
      "bufferView": 2,
      "byteOffset": 170880,
      "componentType": 5126,
      "count": 72,
      "max": [
        0.973759114742279,
        1.0,
        1.0
      ],
      "min": [
        -0.9737592339515686,
        -1.0,
        -1.0
      ],
      "type": "VEC3"
    },
    {
      "bufferView": 1,
      "byteOffset": 56672,
      "componentType": 5126,
      "count": 72,
      "max": [
        1.0,
        0.9875954389572144
      ],
      "min": [
        0.0,
        0.0
      ],
      "type": "VEC2"
    },
    {
      "bufferView": 0,
      "byteOffset": 69792,
      "componentType": 5125,
      "count": 204,
      "type": "SCALAR"
    },
    {
      "bufferView": 2,
      "byteOffset": 171744,
      "componentType": 5126,
      "count": 872,
      "max": [
        0.7853754162788391,
        1.4075260162353516,
        -0.4916780889034271
      ],
      "min": [
        -0.7919208407402039,
        -1.6122491359710693,
        -0.719332754611969
      ],
      "type": "VEC3"
    },
    {
      "bufferView": 2,
      "byteOffset": 182208,
      "componentType": 5126,
      "count": 872,
      "max": [
        1.0,
        1.0,
        1.0
      ],
      "min": [
        -1.0,
        -1.0,
        -1.0
      ],
      "type": "VEC3"
    },
    {
      "bufferView": 1,
      "byteOffset": 57248,
      "componentType": 5126,
      "count": 872,
      "max": [
        0.9895237684249878,
        0.9806870222091675
      ],
      "min": [
        0.012813625857234001,
        0.011499477550387383
      ],
      "type": "VEC2"
    },
    {
      "bufferView": 0,
      "byteOffset": 70608,
      "componentType": 5125,
      "count": 2976,
      "type": "SCALAR"
    },
    {
      "bufferView": 2,
      "byteOffset": 192672,
      "componentType": 5126,
      "count": 2304,
      "max": [
        0.6516211628913879,
        1.3742362260818481,
        -0.06400046497583389
      ],
      "min": [
        -0.6590470671653748,
        -1.6282044649124146,
        -0.5352696776390076
      ],
      "type": "VEC3"
    },
    {
      "bufferView": 2,
      "byteOffset": 220320,
      "componentType": 5126,
      "count": 2304,
      "max": [
        0.999995768070221,
        0.9824358224868774,
        0.9999728798866272
      ],
      "min": [
        -0.9999740719795227,
        -0.9999973773956299,
        -0.9986806511878967
      ],
      "type": "VEC3"
    },
    {
      "bufferView": 1,
      "byteOffset": 64224,
      "componentType": 5126,
      "count": 2304,
      "max": [
        0.9485519528388977,
        0.9850776791572571
      ],
      "min": [
        0.015026104636490345,
        0.3212834596633911
      ],
      "type": "VEC2"
    },
    {
      "bufferView": 0,
      "byteOffset": 82512,
      "componentType": 5125,
      "count": 7200,
      "type": "SCALAR"
    },
    {
      "bufferView": 2,
      "byteOffset": 247968,
      "componentType": 5126,
      "count": 6724,
      "max": [
        0.8467217087745667,
        0.9918544888496399,
        -0.24162557721138
      ],
      "min": [
        -0.8541982173919678,
        -1.1637769937515259,
        -0.9262245297431946
      ],
      "type": "VEC3"
    },
    {
      "bufferView": 2,
      "byteOffset": 328656,
      "componentType": 5126,
      "count": 6724,
      "max": [
        0.9999979138374329,
        0.9999970197677612,
        1.0
      ],
      "min": [
        -0.9999999403953552,
        -0.9999970197677612,
        -1.0
      ],
      "type": "VEC3"
    },
    {
      "bufferView": 1,
      "byteOffset": 82656,
      "componentType": 5126,
      "count": 6724,
      "max": [
        0.9466007947921753,
        0.9895660877227783
      ],
      "min": [
        0.0071270582266151905,
        0.01185598224401474
      ],
      "type": "VEC2"
    },
    {
      "bufferView": 0,
      "byteOffset": 111312,
      "componentType": 5125,
      "count": 24312,
      "type": "SCALAR"
    },
    {
      "bufferView": 2,
      "byteOffset": 409344,
      "componentType": 5126,
      "count": 576,
      "max": [
        0.8359968066215515,
        -0.5401296615600586,
        0.8393229842185974
      ],
      "min": [
        -0.8424229025840759,
        -1.614742398262024,
        0.31998759508132935
      ],
      "type": "VEC3"
    },
    {
      "bufferView": 2,
      "byteOffset": 416256,
      "componentType": 5126,
      "count": 576,
      "max": [
        0.976058304309845,
        0.9999788403511047,
        0.982353687286377
      ],
      "min": [
        -0.976058304309845,
        -0.9215707778930664,
        -0.9566484689712524
      ],
      "type": "VEC3"
    },
    {
      "bufferView": 0,
      "byteOffset": 208560,
      "componentType": 5125,
      "count": 2364,
      "type": "SCALAR"
    },
    {
      "bufferView": 2,
      "byteOffset": 423168,
      "componentType": 5126,
      "count": 3088,
      "max": [
        0.6481946110725403,
        1.3901418447494507,
        -0.07292220741510391
      ],
      "min": [
        -0.6560301184654236,
        -1.7005820274353027,
        -0.5322372913360596
      ],
      "type": "VEC3"
    },
    {
      "bufferView": 2,
      "byteOffset": 460224,
      "componentType": 5126,
      "count": 3088,
      "max": [
        0.979483425617218,
        0.9941472411155701,
        0.9995354413986206
      ],
      "min": [
        -0.9784929156303406,
        -0.9941469430923462,
        -0.9975550770759583
      ],
      "type": "VEC3"
    },
    {
      "bufferView": 1,
      "byteOffset": 136448,
      "componentType": 5126,
      "count": 3088,
      "max": [
        0.8420263528823853,
        0.23448613286018372
      ],
      "min": [
        0.08702457696199417,
        0.02157686837017536
      ],
      "type": "VEC2"
    },
    {
      "bufferView": 0,
      "byteOffset": 218016,
      "componentType": 5125,
      "count": 13824,
      "type": "SCALAR"
    }
  ],
  "asset": {
    "extras": {
      "author": "perceval-66 (https://sketchfab.com/perceval-66)",
      "license": "CC-BY-4.0 (http://creativecommons.org/licenses/by/4.0/)",
      "source": "https://sketchfab.com/3d-models/the-mystery-machine-56e8c4502c4d443694c931d9f6f7b7fe",
      "title": "The Mystery Machine"
    },
    "generator": "Sketchfab-12.66.0",
    "version": "2.0"
  },
  "bufferViews": [
    {
      "buffer": 0,
      "byteLength": 273312,
      "name": "floatBufferViews",
      "target": 34963
    },
    {
      "buffer": 0,
      "byteLength": 161152,
      "byteOffset": 273312,
      "byteStride": 8,
      "name": "floatBufferViews",
      "target": 34962
    },
    {
      "buffer": 0,
      "byteLength": 497280,
      "byteOffset": 434464,
      "byteStride": 12,
      "name": "floatBufferViews",
      "target": 34962
    }
  ],
  "buffers": [
    {
      "byteLength": 931744,
      "uri": "scene.bin"
    }
  ],
  "extensionsRequired": [
    "KHR_materials_pbrSpecularGlossiness"
  ],
  "extensionsUsed": [
    "KHR_materials_pbrSpecularGlossiness"
  ],
  "images": [
    {
      "uri": "textures/Pare-choc_diffuse.png"
    },
    {
      "uri": "textures/Pare-choc_specularGlossiness.png"
    },
    {
      "uri": "textures/Image_auv_diffuse.png"
    },
    {
      "uri": "textures/Image_auv_specularGlossiness.png"
    },
    {
      "uri": "textures/Phares_diffuse.png"
    },
    {
      "uri": "textures/Phares_specularGlossiness.png"
    },
    {
      "uri": "textures/Accessoires_diffuse.png"
    },
    {
      "uri": "textures/Accessoires_specularGlossiness.png"
    },
    {
      "uri": "textures/Roues_diffuse.png"
    },
    {
      "uri": "textures/Roues_specularGlossiness.png"
    },
    {
      "uri": "textures/Roues_occlusion.png"
    },
    {
      "uri": "textures/Caisse_diffuse.png"
    },
    {
      "uri": "textures/Caisse_specularGlossiness.png"
    }
  ],
  "materials": [
    {
      "doubleSided": true,
      "extensions": {
        "KHR_materials_pbrSpecularGlossiness": {
          "diffuseFactor": [
            1.0,
            1.0,
            1.0,
            1.0
          ],
          "diffuseTexture": {
            "index": 0
          },
          "glossinessFactor": 0.08683247298883072,
          "specularFactor": [
            0.23883680207212302,
            0.23883680207212302,
            0.23883680207212302
          ],
          "specularGlossinessTexture": {
            "index": 1
          }
        }
      },
      "name": "Pare-choc"
    },
    {
      "doubleSided": true,
      "extensions": {
        "KHR_materials_pbrSpecularGlossiness": {
          "diffuseFactor": [
            1.0,
            1.0,
            1.0,
            1.0
          ],
          "diffuseTexture": {
            "index": 2
          },
          "glossinessFactor": 1.0,
          "specularFactor": [
            1.0,
            1.0,
            1.0
          ],
          "specularGlossinessTexture": {
            "index": 3
          }
        }
      },
      "name": "Image_auv"
    },
    {
      "alphaMode": "BLEND",
      "doubleSided": true,
      "extensions": {
        "KHR_materials_pbrSpecularGlossiness": {
          "diffuseFactor": [
            0.15106111600058364,
            0.27574635056606417,
            0.2973264226465169,
            0.32
          ],
          "glossinessFactor": 0.536765287075376,
          "specularFactor": [
            0.2692376678887815,
            0.2692376678887815,
            0.2692376678887815
          ]
        }
      },
      "name": "Vitre"
    },
    {
      "doubleSided": true,
      "extensions": {
        "KHR_materials_pbrSpecularGlossiness": {
          "diffuseFactor": [
            1.0,
            1.0,
            1.0,
            1.0
          ],
          "diffuseTexture": {
            "index": 4
          },
          "glossinessFactor": 0.5489256334020393,
          "specularFactor": [
            0.9684575816719261,
            0.9684575816719261,
            0.9684575816719261
          ],
          "specularGlossinessTexture": {
            "index": 5
          }
        }
      },
      "name": "Phares"
    },
    {
      "doubleSided": true,
      "extensions": {
        "KHR_materials_pbrSpecularGlossiness": {
          "diffuseFactor": [
            0.6826894429953365,
            0.6826894429953365,
            0.6826894429953365,
            1.0
          ],
          "diffuseTexture": {
            "index": 6
          },
          "glossinessFactor": 0.4881239017687224,
          "specularFactor": [
            0.4030014774820787,
            0.4030014774820787,
            0.4030014774820787
          ],
          "specularGlossinessTexture": {
            "index": 7
          }
        }
      },
      "name": "Accessoires"
    },
    {
      "doubleSided": true,
      "extensions": {
        "KHR_materials_pbrSpecularGlossiness": {
          "diffuseFactor": [
            1.0,
            1.0,
            1.0,
            1.0
          ],
          "diffuseTexture": {
            "index": 8
          },
          "glossinessFactor": 0.20235576309213288,
          "specularFactor": [
            0.21451610941879626,
            0.21451610941879626,
            0.21451610941879626
          ],
          "specularGlossinessTexture": {
            "index": 9
          }
        }
      },
      "name": "Roues",
      "occlusionTexture": {
        "index": 10,
        "strength": 0.050351434008840575
      }
    },
    {
      "doubleSided": true,
      "extensions": {
        "KHR_materials_pbrSpecularGlossiness": {
          "diffuseFactor": [
            0.8286135989152972,
            0.8286135989152972,
            0.8286135989152972,
            1.0
          ],
          "diffuseTexture": {
            "index": 11
          },
          "glossinessFactor": 1.0,
          "specularFactor": [
            0.12939368513215257,
            0.12939368513215257,
            0.12939368513215257
          ],
          "specularGlossinessTexture": {
            "index": 12
          }
        }
      },
      "name": "Caisse"
    }
  ],
  "meshes": [
    {
      "name": "Object_0",
      "primitives": [
        {
          "attributes": {
            "NORMAL": 1,
            "POSITION": 0,
            "TEXCOORD_0": 2
          },
          "indices": 3,
          "material": 4,
          "mode": 4
        }
      ]
    },
    {
      "name": "Object_1",
      "primitives": [
        {
          "attributes": {
            "NORMAL": 5,
            "POSITION": 4,
            "TEXCOORD_0": 6
          },
          "indices": 7,
          "material": 6,
          "mode": 4
        }
      ]
    },
    {
      "name": "Object_2",
      "primitives": [
        {
          "attributes": {
            "NORMAL": 9,
            "POSITION": 8,
            "TEXCOORD_0": 10
          },
          "indices": 11,
          "material": 1,
          "mode": 4
        }
      ]
    },
    {
      "name": "Object_3",
      "primitives": [
        {
          "attributes": {
            "NORMAL": 13,
            "POSITION": 12,
            "TEXCOORD_0": 14
          },
          "indices": 15,
          "material": 0,
          "mode": 4
        }
      ]
    },
    {
      "name": "Object_4",
      "primitives": [
        {
          "attributes": {
            "NORMAL": 17,
            "POSITION": 16,
            "TEXCOORD_0": 18
          },
          "indices": 19,
          "material": 3,
          "mode": 4
        }
      ]
    },
    {
      "name": "Object_5",
      "primitives": [
        {
          "attributes": {
            "NORMAL": 21,
            "POSITION": 20,
            "TEXCOORD_0": 22
          },
          "indices": 23,
          "material": 5,
          "mode": 4
        }
      ]
    },
    {
      "name": "Object_6",
      "primitives": [
        {
          "attributes": {
            "NORMAL": 25,
            "POSITION": 24
          },
          "indices": 26,
          "material": 2,
          "mode": 4
        }
      ]
    },
    {
      "name": "Object_7",
      "primitives": [
        {
          "attributes": {
            "NORMAL": 28,
            "POSITION": 27,
            "TEXCOORD_0": 29
          },
          "indices": 30,
          "material": 2,
          "mode": 4
        }
      ]
    }
  ],
  "nodes": [
    {
      "children": [
        1
      ],
      "matrix": [
        1.0,
        0.0,
        0.0,
        0.0,
        0.0,
        2.220446049250313e-16,
        -1.0,
        0.0,
        0.0,
        1.0,
        2.220446049250313e-16,
        0.0,
        0.0,
        0.0,
        0.0,
        1.0
      ],
      "name": "Sketchfab_model"
    },
    {
      "children": [
        2,
        3,
        4,
        5,
        6,
        7,
        8,
        9
      ],
      "name": "24bc7d0f0c3940199ea408a0463cfe51.3ds"
    },
    {
      "mesh": 0,
      "name": "Object_2"
    },
    {
      "mesh": 1,
      "name": "Object_3"
    },
    {
      "mesh": 2,
      "name": "Object_4"
    },
    {
      "mesh": 3,
      "name": "Object_5"
    },
    {
      "mesh": 4,
      "name": "Object_6"
    },
    {
      "mesh": 5,
      "name": "Object_7"
    },
    {
      "mesh": 6,
      "name": "Object_8"
    },
    {
      "mesh": 7,
      "name": "Object_9"
    }
  ],
  "samplers": [
    {
      "magFilter": 9729,
      "minFilter": 9987,
      "wrapS": 10497,
      "wrapT": 10497
    }
  ],
  "scene": 0,
  "scenes": [
    {
      "name": "Sketchfab_Scene",
      "nodes": [
        0
      ]
    }
  ],
  "textures": [
    {
      "sampler": 0,
      "source": 0
    },
    {
      "sampler": 0,
      "source": 1
    },
    {
      "sampler": 0,
      "source": 2
    },
    {
      "sampler": 0,
      "source": 3
    },
    {
      "sampler": 0,
      "source": 4
    },
    {
      "sampler": 0,
      "source": 5
    },
    {
      "sampler": 0,
      "source": 6
    },
    {
      "sampler": 0,
      "source": 7
    },
    {
      "sampler": 0,
      "source": 8
    },
    {
      "sampler": 0,
      "source": 9
    },
    {
      "sampler": 0,
      "source": 10
    },
    {
      "sampler": 0,
      "source": 11
    },
    {
      "sampler": 0,
      "source": 12
    }
  ]
}
